<?xml version="1.0" encoding="UTF-8" standalone="no"?>
<!-- Generator: Adobe Illustrator 17.0.0, SVG Export Plug-In . SVG Version: 6.00 Build 0)  -->

<svg
   version="1.1"
   id="Layer_1"
   x="0px"
   y="0px"
   width="432px"
   height="432px"
   viewBox="0 0 432 432"
   enable-background="new 0 0 432 432"
   xml:space="preserve"
   sodipodi:docname="trec_license.svg"
   inkscape:version="1.1.2 (b8e25be8, 2022-02-05)"
   inkscape:export-filename="/Users/ryanroth/trec.png"
   inkscape:export-xdpi="111.11111"
   inkscape:export-ydpi="111.11111"
   xmlns:inkscape="http://www.inkscape.org/namespaces/inkscape"
   xmlns:sodipodi="http://sodipodi.sourceforge.net/DTD/sodipodi-0.dtd"
   xmlns="http://www.w3.org/2000/svg"
   xmlns:svg="http://www.w3.org/2000/svg"><defs
   id="defs897" /><sodipodi:namedview
   id="namedview895"
   pagecolor="#505050"
   bordercolor="#eeeeee"
   borderopacity="1"
   inkscape:pageshadow="0"
   inkscape:pageopacity="0"
   inkscape:pagecheckerboard="0"
   showgrid="false"
   inkscape:snap-bbox="true"
   inkscape:bbox-nodes="true"
   inkscape:bbox-paths="true"
   inkscape:snap-bbox-edge-midpoints="true"
   inkscape:snap-bbox-midpoints="true"
   showguides="true"
   inkscape:guide-bbox="true"
   inkscape:zoom="0.92026169"
   inkscape:cx="179.84015"
   inkscape:cy="195.05321"
   inkscape:window-width="1366"
   inkscape:window-height="715"
   inkscape:window-x="0"
   inkscape:window-y="25"
   inkscape:window-maximized="0"
   inkscape:current-layer="Layer_1"><sodipodi:guide
     position="216.104,389.203"
     orientation="1,0"
     id="guide1081" /><sodipodi:guide
     position="24.112,205.334"
     orientation="1,0"
     id="guide1085" /><sodipodi:guide
     position="409.241,219.541"
     orientation="1,0"
     id="guide1087" /><sodipodi:guide
     position="29.246,60.216"
     orientation="0,1"
     id="guide1089"
     inkscape:label=""
     inkscape:locked="false"
     inkscape:color="rgb(0,0,255)" /></sodipodi:namedview>
<g
   id="g832"
   transform="translate(0.007,-22.372)">
	<path
   fill="#007481"
   d="m 123.787,196.874 v 29.792 h -17.208 l -0.918,-12.518 h -20.58 v 78.783 l 11.982,2.302 V 308.68 H 50.685 v -13.447 l 11.969,-2.302 V 214.148 H 42.15 l -0.918,12.518 h -17.12 v -29.792 h 99.675 z"
   id="path824" />
	<path
   fill="#007481"
   d="m 178.159,196.874 c 12.692,0 22.648,2.902 29.875,8.714 7.208,5.812 10.824,13.834 10.824,24.065 0,5.636 -1.516,10.528 -4.535,14.674 -3.019,4.145 -7.447,7.503 -13.283,10.057 6.604,1.949 11.358,5.188 14.246,9.717 2.893,4.528 4.339,10.146 4.339,16.856 v 5.686 c 0,2.452 0.479,4.364 1.453,5.717 0.976,1.358 2.592,2.157 4.844,2.422 l 2.767,0.377 v 13.522 h -11.598 c -7.321,0 -12.465,-1.975 -15.44,-5.912 -2.969,-3.95 -4.447,-9.044 -4.447,-15.29 v -6.364 c 0,-5.429 -1.446,-9.692 -4.346,-12.793 -2.887,-3.095 -6.969,-4.724 -12.239,-4.874 H 162.26 v 29.484 l 11.975,2.302 v 13.447 h -46.303 v -13.447 l 11.9,-2.302 V 212.69 l -11.9,-2.302 v -13.513 h 11.9 38.327 z M 162.26,246.17 h 15.516 c 6.239,0 10.925,-1.327 14.051,-3.994 3.12,-2.66 4.68,-6.497 4.68,-11.516 0,-5.02 -1.547,-9.025 -4.642,-12.021 -3.095,-2.997 -7.667,-4.49 -13.705,-4.49 h -15.9 z"
   id="path826" />
	<path
   fill="#007481"
   d="m 298.804,259.528 h -37.862 v 31.944 h 36.095 l 1,-13.359 h 17.051 v 30.567 h -88.461 v -13.447 l 11.899,-2.302 v -80.242 l -11.899,-2.302 v -13.513 h 11.899 76.404 v 30.634 h -17.195 l -1.006,-13.36 h -35.787 v 28.103 h 37.862 z"
   id="path828" />
	<path
   fill="#007481"
   d="m 409.24,234.578 h -16.667 l -2.302,-14.901 c -2.195,-2.201 -4.981,-3.943 -8.334,-5.22 -3.346,-1.283 -7.302,-1.921 -11.855,-1.921 -9.73,0 -17.214,3.538 -22.466,10.602 -5.245,7.057 -7.874,16.271 -7.874,27.642 v 3.912 c 0,11.365 2.609,20.611 7.836,27.725 5.227,7.113 12.592,10.673 22.114,10.673 4.402,0 8.434,-0.642 12.088,-1.925 3.661,-1.276 6.497,-3.019 8.491,-5.22 l 2.302,-14.893 h 16.667 v 22.113 c -4.503,5.221 -10.252,9.385 -17.239,12.479 -6.994,3.101 -14.806,4.642 -23.46,4.642 -15,0 -27.29,-5.189 -36.862,-15.579 -9.572,-10.397 -14.352,-23.736 -14.352,-40.014 v -3.761 c 0,-16.233 4.755,-29.562 14.277,-40.002 9.522,-10.447 21.837,-15.67 36.938,-15.67 8.654,0 16.46,1.573 23.422,4.724 6.963,3.151 12.724,7.302 17.277,12.475 v 22.119 z"
   id="path830" />
</g>
<polygon
   fill="#a02816"
   points="225.786,131.354 257.095,131.354 231.768,149.767 241.44,179.542 216.101,161.139 190.779,179.542 200.439,149.767 175.112,131.354 206.408,131.354 216.101,101.564 "
   id="polygon834"
   transform="translate(0.007,-22.372)" />
<g
   id="g886"
   transform="translate(0.007,-22.372)">
	<path
   fill="#005d83"
   d="m 31.438,350.801 h -4.192 v -2.795 h 11.416 v 2.795 h -4.193 v 10.983 h -3.031 v -10.983 z"
   id="path836" />
	<path
   fill="#005d83"
   d="m 42.164,348.006 h 10.393 v 2.696 h -7.381 v 2.795 h 6.496 v 2.697 h -6.496 v 2.894 h 7.48 v 2.696 H 42.164 Z"
   id="path838" />
	<path
   fill="#005d83"
   d="m 60.292,354.776 -4.606,-6.771 h 3.543 l 2.894,4.468 2.913,-4.468 h 3.445 l -4.606,6.731 4.803,7.047 h -3.543 l -3.09,-4.724 -3.11,4.724 h -3.444 z"
   id="path840" />
	<path
   fill="#005d83"
   d="m 76.451,347.907 h 2.795 l 5.905,13.877 h -3.169 l -1.26,-3.091 h -5.826 l -1.26,3.091 h -3.091 z m 3.189,8.11 -1.831,-4.468 -1.831,4.468 z"
   id="path842" />
	<path
   fill="#005d83"
   d="m 87.314,359.776 1.792,-2.146 c 1.24,1.023 2.539,1.673 4.114,1.673 1.24,0 1.988,-0.492 1.988,-1.299 v -0.039 c 0,-0.768 -0.473,-1.162 -2.776,-1.752 -2.775,-0.709 -4.566,-1.477 -4.566,-4.213 v -0.039 c 0,-2.5 2.008,-4.153 4.823,-4.153 2.007,0 3.72,0.63 5.118,1.752 l -1.575,2.283 c -1.221,-0.847 -2.421,-1.358 -3.582,-1.358 -1.161,0 -1.771,0.532 -1.771,1.201 v 0.039 c 0,0.905 0.59,1.201 2.972,1.812 2.795,0.727 4.37,1.731 4.37,4.133 v 0.04 c 0,2.735 -2.086,4.271 -5.059,4.271 -2.088,0 -4.194,-0.728 -5.848,-2.205 z"
   id="path844" />
	<path
   fill="#005d83"
   d="m 109.122,348.006 h 6.299 c 1.752,0 3.11,0.492 4.016,1.397 0.768,0.768 1.181,1.85 1.181,3.149 v 0.039 c 0,2.225 -1.201,3.622 -2.953,4.272 l 3.366,4.921 h -3.543 l -2.953,-4.409 h -0.039 -2.343 v 4.409 h -3.031 v -13.778 z m 6.102,6.692 c 1.477,0 2.323,-0.788 2.323,-1.949 v -0.039 c 0,-1.299 -0.905,-1.969 -2.382,-1.969 h -3.012 v 3.957 z"
   id="path846" />
	<path
   fill="#005d83"
   d="m 124.533,348.006 h 10.393 v 2.696 h -7.381 v 2.795 h 6.496 v 2.697 h -6.496 v 2.894 h 7.48 v 2.696 h -10.492 z"
   id="path848" />
	<path
   fill="#005d83"
   d="m 143.626,347.907 h 2.795 l 5.905,13.877 h -3.169 l -1.26,-3.091 h -5.826 l -1.26,3.091 h -3.091 z m 3.188,8.11 -1.831,-4.468 -1.831,4.468 z"
   id="path850" />
	<path
   fill="#005d83"
   d="m 155.631,348.006 h 3.031 v 11.022 h 6.87 v 2.756 h -9.901 z"
   id="path852" />
	<path
   fill="#005d83"
   d="m 176.08,348.006 h 10.393 v 2.696 h -7.381 v 2.795 h 6.496 v 2.697 h -6.496 v 2.894 h 7.48 v 2.696 H 176.08 Z"
   id="path854" />
	<path
   fill="#005d83"
   d="m 189.503,359.776 1.791,-2.146 c 1.24,1.023 2.539,1.673 4.114,1.673 1.24,0 1.988,-0.492 1.988,-1.299 v -0.039 c 0,-0.768 -0.473,-1.162 -2.775,-1.752 -2.776,-0.709 -4.567,-1.477 -4.567,-4.213 v -0.039 c 0,-2.5 2.008,-4.153 4.823,-4.153 2.007,0 3.72,0.63 5.118,1.752 l -1.575,2.283 c -1.221,-0.847 -2.421,-1.358 -3.583,-1.358 -1.162,0 -1.771,0.532 -1.771,1.201 v 0.039 c 0,0.905 0.59,1.201 2.972,1.812 2.795,0.727 4.37,1.731 4.37,4.133 v 0.04 c 0,2.735 -2.086,4.271 -5.059,4.271 -2.086,0 -4.192,-0.728 -5.846,-2.205 z"
   id="path856" />
	<path
   fill="#005d83"
   d="m 207.139,350.801 h -4.192 v -2.795 h 11.417 v 2.795 h -4.193 v 10.983 h -3.031 v -10.983 z"
   id="path858" />
	<path
   fill="#005d83"
   d="m 220.818,347.907 h 2.795 l 5.906,13.877 h -3.17 l -1.26,-3.091 h -5.826 l -1.26,3.091 h -3.09 z m 3.19,8.11 -1.832,-4.468 -1.83,4.468 z"
   id="path860" />
	<path
   fill="#005d83"
   d="m 234.262,350.801 h -4.193 v -2.795 h 11.416 v 2.795 h -4.191 v 10.983 h -3.031 v -10.983 z"
   id="path862" />
	<path
   fill="#005d83"
   d="m 244.988,348.006 h 10.395 v 2.696 H 248 v 2.795 h 6.496 v 2.697 H 248 v 2.894 h 7.48 v 2.696 h -10.492 z"
   id="path864" />
	<path
   fill="#005d83"
   d="m 265.832,354.935 v -0.04 c 0,-3.917 2.953,-7.125 7.184,-7.125 2.6,0 4.154,0.866 5.434,2.126 l -1.93,2.224 c -1.062,-0.964 -2.145,-1.555 -3.523,-1.555 -2.322,0 -3.996,1.929 -3.996,4.291 v 0.039 c 0,2.362 1.635,4.331 3.996,4.331 1.576,0 2.539,-0.63 3.623,-1.614 l 1.928,1.948 c -1.416,1.516 -2.992,2.461 -5.648,2.461 -4.056,0 -7.068,-3.13 -7.068,-7.086 z"
   id="path866" />
	<path
   fill="#005d83"
   d="m 281.145,354.935 v -0.04 c 0,-3.917 3.09,-7.125 7.342,-7.125 4.252,0 7.303,3.169 7.303,7.086 v 0.039 c 0,3.917 -3.09,7.126 -7.342,7.126 -4.253,0 -7.303,-3.169 -7.303,-7.086 z m 11.474,0 v -0.04 c 0,-2.361 -1.73,-4.33 -4.172,-4.33 -2.442,0 -4.135,1.929 -4.135,4.291 v 0.039 c 0,2.362 1.732,4.331 4.174,4.331 2.442,0 4.133,-1.93 4.133,-4.291 z"
   id="path868" />
	<path
   fill="#005d83"
   d="m 299.666,348.006 h 3.268 l 3.621,5.826 3.623,-5.826 h 3.268 v 13.778 h -3.012 v -8.995 l -3.879,5.885 h -0.078 l -3.838,-5.826 v 8.937 h -2.973 v -13.779 z"
   id="path870" />
	<path
   fill="#005d83"
   d="m 317.93,348.006 h 3.268 l 3.623,5.826 3.621,-5.826 h 3.268 v 13.778 h -3.012 v -8.995 l -3.877,5.885 h -0.08 l -3.838,-5.826 v 8.937 h -2.973 v -13.779 z"
   id="path872" />
	<path
   fill="#005d83"
   d="m 336.332,348.006 h 3.031 v 13.778 h -3.031 z"
   id="path874" />
	<path
   fill="#005d83"
   d="m 343.045,359.776 1.791,-2.146 c 1.24,1.023 2.539,1.673 4.113,1.673 1.24,0 1.988,-0.492 1.988,-1.299 v -0.039 c 0,-0.768 -0.473,-1.162 -2.775,-1.752 -2.775,-0.709 -4.566,-1.477 -4.566,-4.213 v -0.039 c 0,-2.5 2.008,-4.153 4.822,-4.153 2.008,0 3.721,0.63 5.117,1.752 l -1.574,2.283 c -1.221,-0.847 -2.422,-1.358 -3.582,-1.358 -1.162,0 -1.772,0.532 -1.772,1.201 v 0.039 c 0,0.905 0.59,1.201 2.973,1.812 2.795,0.727 4.369,1.731 4.369,4.133 v 0.04 c 0,2.735 -2.086,4.271 -5.059,4.271 -2.087,0 -4.193,-0.728 -5.845,-2.205 z"
   id="path876" />
	<path
   fill="#005d83"
   d="m 356.625,359.776 1.791,-2.146 c 1.24,1.023 2.539,1.673 4.115,1.673 1.238,0 1.986,-0.492 1.986,-1.299 v -0.039 c 0,-0.768 -0.471,-1.162 -2.775,-1.752 -2.775,-0.709 -4.566,-1.477 -4.566,-4.213 v -0.039 c 0,-2.5 2.008,-4.153 4.822,-4.153 2.008,0 3.721,0.63 5.119,1.752 l -1.576,2.283 c -1.219,-0.847 -2.42,-1.358 -3.582,-1.358 -1.16,0 -1.772,0.532 -1.772,1.201 v 0.039 c 0,0.905 0.592,1.201 2.973,1.812 2.795,0.727 4.369,1.731 4.369,4.133 v 0.04 c 0,2.735 -2.086,4.271 -5.059,4.271 -2.085,0 -4.191,-0.728 -5.845,-2.205 z"
   id="path878" />
	<path
   fill="#005d83"
   d="m 371.484,348.006 h 3.031 v 13.778 h -3.031 z"
   id="path880" />
	<path
   fill="#005d83"
   d="m 378.531,354.935 v -0.04 c 0,-3.917 3.09,-7.125 7.342,-7.125 4.252,0 7.303,3.169 7.303,7.086 v 0.039 c 0,3.917 -3.09,7.126 -7.342,7.126 -4.252,0 -7.303,-3.169 -7.303,-7.086 z m 11.475,0 v -0.04 c 0,-2.361 -1.73,-4.33 -4.172,-4.33 -2.441,0 -4.135,1.929 -4.135,4.291 v 0.039 c 0,2.362 1.732,4.331 4.174,4.331 2.441,0 4.133,-1.93 4.133,-4.291 z"
   id="path882" />
	<path
   fill="#005d83"
   d="m 397.053,348.006 h 2.795 l 6.457,8.483 v -8.483 h 2.99 v 13.778 h -2.578 l -6.672,-8.76 v 8.76 h -2.992 z"
   id="path884" />
</g>
<polygon
   fill="#005d83"
   points="216.097,65.169 376.938,180.619 408.096,180.619 216.418,43.026 216.097,42.797 215.789,43.026 24.112,180.619 55.263,180.619 "
   id="polygon888"
   transform="translate(0.007,-22.372)" />
<polygon
   fill="#005d83"
   points="216.104,84.133 350.088,180.619 360.453,180.619 216.142,76.695 216.104,76.746 216.072,76.695 71.761,180.619 82.113,180.619 "
   id="polygon890"
   transform="translate(0.007,-22.372)" />
<rect
   x="26.879999"
   y="302.31799"
   fill="#005d83"
   width="383.98401"
   height="6.0570002"
   id="rect892" />
<text
   xml:space="preserve"
   style="font-weight:bold;font-size:48.9995px;line-height:1.25;font-family:Arimo;-inkscape-font-specification:'Arimo Bold';fill:#007481;fill-opacity:1;stroke-width:1.22498"
   x="20.841204"
   y="418.35077"
   id="text18421"><tspan
     sodipodi:role="line"
     id="tspan18419"
     x="20.841204"
     y="418.35077"
     style="stroke-width:1.22498;fill:#007481;fill-opacity:1">Licence #: 25791</tspan></text><text
   xml:space="preserve"
   style="font-weight:bold;font-size:35.8677px;line-height:1.25;font-family:Arimo;-inkscape-font-specification:'Arimo Bold';stroke-width:0.8981;stroke-miterlimit:4;stroke-dasharray:none;fill:#007481;fill-opacity:1"
   x="21.719646"
   y="375.40207"
   id="text24262"><tspan
     sodipodi:role="line"
     id="tspan24260"
     x="21.719646"
     y="375.40207"
     style="stroke-width:0.8981;fill:#007481;fill-opacity:1">Professional Inspector</tspan></text></svg>
