<?xml version="1.0" encoding="UTF-8" standalone="no"?>
<!-- Generator: Adobe Illustrator 17.0.0, SVG Export Plug-In . SVG Version: 6.00 Build 0)  -->

<svg
   version="1.1"
   id="Layer_1"
   x="0px"
   y="0px"
   width="383.98401"
   height="348.93588"
   viewBox="0 0 383.98401 348.93588"
   enable-background="new 0 0 432 432"
   xml:space="preserve"
   sodipodi:docname="TREC.svg"
   inkscape:version="1.1.2 (b8e25be8, 2022-02-05)"
   xmlns:inkscape="http://www.inkscape.org/namespaces/inkscape"
   xmlns:sodipodi="http://sodipodi.sourceforge.net/DTD/sodipodi-0.dtd"
   xmlns="http://www.w3.org/2000/svg"
   xmlns:svg="http://www.w3.org/2000/svg"><defs
   id="defs897" /><sodipodi:namedview
   id="namedview895"
   pagecolor="#505050"
   bordercolor="#eeeeee"
   borderopacity="1"
   inkscape:pageshadow="0"
   inkscape:pageopacity="0"
   inkscape:pagecheckerboard="0"
   showgrid="false"
   inkscape:snap-bbox="true"
   inkscape:bbox-nodes="true"
   inkscape:bbox-paths="true"
   inkscape:snap-bbox-edge-midpoints="true"
   inkscape:snap-bbox-midpoints="true"
   showguides="true"
   inkscape:guide-bbox="true"
   inkscape:zoom="1.0429759"
   inkscape:cx="212.37307"
   inkscape:cy="201.34693"
   inkscape:window-width="1366"
   inkscape:window-height="768"
   inkscape:window-x="0"
   inkscape:window-y="0"
   inkscape:window-maximized="0"
   inkscape:current-layer="Layer_1"><sodipodi:guide
     position="191.985,326.56388"
     orientation="1,0"
     id="guide1081" /><sodipodi:guide
     position="5.1879883e-07,211.11388"
     orientation="1,0"
     id="guide1085" /><sodipodi:guide
     position="383.984,211.11388"
     orientation="1,0"
     id="guide1087" /><sodipodi:guide
     position="5.1879883e-07,15.86339"
     orientation="0,1"
     id="guide1089"
     inkscape:label=""
     inkscape:locked="false"
     inkscape:color="rgb(0,0,255)" /><sodipodi:guide
     position="3.1340005,43.726882"
     orientation="0,-1"
     id="guide22322" /><sodipodi:guide
     position="2.7609995,67.042892"
     orientation="0,-1"
     id="guide22484" /></sodipodi:namedview>
<g
   id="g832"
   transform="matrix(0.99702697,0,0,1,-24.040314,-42.797)">
	<path
   fill="#007481"
   d="m 123.787,196.874 v 29.792 h -17.208 l -0.918,-12.518 h -20.58 v 78.783 l 11.982,2.302 V 308.68 H 50.685 v -13.447 l 11.969,-2.302 V 214.148 H 42.15 l -0.918,12.518 h -17.12 v -29.792 z"
   id="path824" />
	<path
   fill="#007481"
   d="m 178.159,196.874 c 12.692,0 22.648,2.902 29.875,8.714 7.208,5.812 10.824,13.834 10.824,24.065 0,5.636 -1.516,10.528 -4.535,14.674 -3.019,4.145 -7.447,7.503 -13.283,10.057 6.604,1.949 11.358,5.188 14.246,9.717 2.893,4.528 4.339,10.146 4.339,16.856 v 5.686 c 0,2.452 0.479,4.364 1.453,5.717 0.976,1.358 2.592,2.157 4.844,2.422 l 2.767,0.377 v 13.522 h -11.598 c -7.321,0 -12.465,-1.975 -15.44,-5.912 -2.969,-3.95 -4.447,-9.044 -4.447,-15.29 v -6.364 c 0,-5.429 -1.446,-9.692 -4.346,-12.793 -2.887,-3.095 -6.969,-4.724 -12.239,-4.874 H 162.26 v 29.484 l 11.975,2.302 v 13.447 h -46.303 v -13.447 l 11.9,-2.302 V 212.69 l -11.9,-2.302 v -13.513 h 11.9 38.327 z M 162.26,246.17 h 15.516 c 6.239,0 10.925,-1.327 14.051,-3.994 3.12,-2.66 4.68,-6.497 4.68,-11.516 0,-5.02 -1.547,-9.025 -4.642,-12.021 -3.095,-2.997 -7.667,-4.49 -13.705,-4.49 h -15.9 z"
   id="path826" />
	<path
   fill="#007481"
   d="m 298.804,259.528 h -37.862 v 31.944 h 36.095 l 1,-13.359 h 17.051 v 30.567 h -88.461 v -13.447 l 11.899,-2.302 v -80.242 l -11.899,-2.302 v -13.513 h 11.899 76.404 v 30.634 h -17.195 l -1.006,-13.36 h -35.787 v 28.103 h 37.862 z"
   id="path828" />
	<path
   fill="#007481"
   d="m 409.24,234.578 h -16.667 l -2.302,-14.901 c -2.195,-2.201 -4.981,-3.943 -8.334,-5.22 -3.346,-1.283 -7.302,-1.921 -11.855,-1.921 -9.73,0 -17.214,3.538 -22.466,10.602 -5.245,7.057 -7.874,16.271 -7.874,27.642 v 3.912 c 0,11.365 2.609,20.611 7.836,27.725 5.227,7.113 12.592,10.673 22.114,10.673 4.402,0 8.434,-0.642 12.088,-1.925 3.661,-1.276 6.497,-3.019 8.491,-5.22 l 2.302,-14.893 h 16.667 v 22.113 c -4.503,5.221 -10.252,9.385 -17.239,12.479 -6.994,3.101 -14.806,4.642 -23.46,4.642 -15,0 -27.29,-5.189 -36.862,-15.579 -9.572,-10.397 -14.352,-23.736 -14.352,-40.014 v -3.761 c 0,-16.233 4.755,-29.562 14.277,-40.002 9.522,-10.447 21.837,-15.67 36.938,-15.67 8.654,0 16.46,1.573 23.422,4.724 6.963,3.151 12.724,7.302 17.277,12.475 v 22.119 z"
   id="path830" />
</g>
<polygon
   fill="#a02816"
   points="231.768,149.767 241.44,179.542 216.101,161.139 190.779,179.542 200.439,149.767 175.112,131.354 206.408,131.354 216.101,101.564 225.786,131.354 257.095,131.354 "
   id="polygon834"
   transform="translate(-24.111999,-42.797)" />

<polygon
   fill="#005d83"
   points="408.096,180.619 216.418,43.026 216.097,42.797 215.789,43.026 24.112,180.619 55.263,180.619 216.097,65.169 376.938,180.619 "
   id="polygon888"
   transform="translate(-24.111999,-42.797)" />
<polygon
   fill="#005d83"
   points="360.453,180.619 216.142,76.695 216.104,76.746 216.072,76.695 71.761,180.619 82.113,180.619 216.104,84.133 350.088,180.619 "
   id="polygon890"
   transform="translate(-24.111999,-42.797)" />
<rect
   x="0"
   y="281.89301"
   fill="#005d83"
   width="383.98401"
   height="6.0570002"
   id="rect892" />
<text
   xml:space="preserve"
   style="font-style:normal;font-variant:normal;font-weight:normal;font-stretch:normal;font-size:22.4057px;line-height:1.25;font-family:Arimo;-inkscape-font-specification:'Arimo, @wght=615';font-variant-ligatures:normal;font-variant-caps:normal;font-variant-numeric:normal;font-variant-east-asian:normal;font-variation-settings:'wght' 615;fill:#005d83;fill-opacity:1;stroke-width:1.13081"
   x="82.253952"
   y="348.7171"
   id="text18421"><tspan
     sodipodi:role="line"
     id="tspan18419"
     x="82.253952"
     y="348.7171"
     style="font-style:normal;font-variant:normal;font-weight:normal;font-stretch:normal;font-size:22.4057px;font-family:Arimo;-inkscape-font-specification:'Arimo, @wght=615';font-variant-ligatures:normal;font-variant-caps:normal;font-variant-numeric:normal;font-variant-east-asian:normal;font-variation-settings:'wght' 615;fill:#005d83;fill-opacity:1;stroke-width:1.13081">PI LICENSE #: 25791</tspan></text><text
   xml:space="preserve"
   style="font-weight:bold;font-size:40px;line-height:1.25;font-family:Arimo;-inkscape-font-specification:'Arimo Bold'"
   x="112.64478"
   y="351.35901"
   id="text17674"><tspan
     sodipodi:role="line"
     id="tspan17672"
     x="112.64478"
     y="351.35901" /></text><text
   xml:space="preserve"
   style="font-weight:bold;font-size:22.4058px;line-height:1.25;font-family:Arimo;-inkscape-font-specification:'Arimo Bold';fill:#005d83;fill-opacity:1;stroke-width:0.560145"
   x="-0.25162697"
   y="320.8537"
   id="text14090"><tspan
     sodipodi:role="line"
     id="tspan14088"
     x="-0.25162697"
     y="320.8537"
     style="fill:#005d83;fill-opacity:1;stroke-width:0.560145">TEXAS REAL ESTATE COMMISSION</tspan></text></svg>
