<?xml version="1.0" encoding="UTF-8" standalone="no"?>
<!-- Created with Inkscape (http://www.inkscape.org/) -->

<svg
   width="82.526329mm"
   height="20.97801mm"
   viewBox="0 0 82.526329 20.97801"
   version="1.1"
   id="svg163"
   inkscape:version="1.1.2 (b8e25be8, 2022-02-05)"
   sodipodi:docname="RAR-HI_LOGO_LONG.svg"
   inkscape:export-filename="/Users/ryanroth/Nextcloud/Documents/RAR of Texas/Logo/RAR-HI_LOGO_LONG.png"
   inkscape:export-xdpi="968.63336"
   inkscape:export-ydpi="968.63336"
   xmlns:inkscape="http://www.inkscape.org/namespaces/inkscape"
   xmlns:sodipodi="http://sodipodi.sourceforge.net/DTD/sodipodi-0.dtd"
   xmlns="http://www.w3.org/2000/svg"
   xmlns:svg="http://www.w3.org/2000/svg">
  <sodipodi:namedview
     id="namedview165"
     pagecolor="#000000"
     bordercolor="#eeeeee"
     borderopacity="1"
     inkscape:pageshadow="0"
     inkscape:pageopacity="0"
     inkscape:pagecheckerboard="true"
     inkscape:document-units="mm"
     showgrid="false"
     fit-margin-top="0"
     fit-margin-left="0"
     fit-margin-right="0"
     fit-margin-bottom="0"
     inkscape:zoom="1.1856514"
     inkscape:cx="113.43975"
     inkscape:cy="58.617567"
     inkscape:window-width="1312"
     inkscape:window-height="715"
     inkscape:window-x="0"
     inkscape:window-y="25"
     inkscape:window-maximized="0"
     inkscape:current-layer="layer1-5" />
  <defs
     id="defs160" />
  <g
     inkscape:label="Layer 1"
     inkscape:groupmode="layer"
     id="layer1"
     transform="translate(-49.779828,-126.07548)">
    <g
       inkscape:label="Layer 1"
       id="layer1-5"
       transform="matrix(0.81655546,0,0,0.81655546,49.339654,120.33503)">
      <path
         id="path148899"
         style="font-size:20px;line-height:1.25;font-family:Arimo;-inkscape-font-specification:'Arimo, @wght=700';font-variation-settings:'wght' 700;fill:#bf0d3e;fill-opacity:1"
         d="M 0.53906156,7.0300795 V 20.789844 H 3.4199209 v -5.224608 h 3.3789064 l 3.1933591,5.224608 h 0.01172 l -1.7675601,5.029297 h 3.2597481 l 1.041015,-3.400391 h 5.199219 l 1.029297,3.361329 V 32.7 h 2.88086 v -5.224609 h 3.378906 L 28.21875,32.7 h 3.242188 l -3.720703,-5.78125 c 0.930989,-0.221354 1.669921,-0.680339 2.216796,-1.376953 0.546875,-0.703125 0.820313,-1.536458 0.820313,-2.5 0,-1.321614 -0.445964,-2.333984 -1.337891,-3.037109 -0.891927,-0.709635 -2.158203,-1.064452 -3.798828,-1.064452 h -6.03125 L 16.976562,11.477345 H 13.277343 L 11.14453,17.543751 9.5136713,15.008596 c 0.9309887,-0.221355 1.6699217,-0.680339 2.2167967,-1.376954 0.546875,-0.703125 0.820312,-1.536458 0.820312,-2.5 0,-1.321615 -0.445963,-2.333984 -1.33789,-3.037109 C 10.320962,7.3848972 9.0546863,7.0300795 7.4140613,7.0300795 Z M 3.4199209,9.266408 h 3.6914064 c 0.846354,0 1.48112,0.166015 1.904297,0.498046 0.423177,0.332032 0.634765,0.826823 0.634765,1.484375 0,0.657553 -0.208333,1.16862 -0.625,1.533204 -0.416666,0.364583 -1.028645,0.546875 -1.835937,0.546875 H 3.4199209 Z m 11.6718751,3.845703 2.972656,4.478514 h -0.74414 v 3.199219 h -1.486328 v -2.560546 h -1.484376 v 2.560546 H 12.86328 v -3.199218 h -0.74414 z m 6.554688,8.064452 h 3.691406 c 0.846354,0 1.48112,0.166016 1.904297,0.498047 0.423177,0.332031 0.634765,0.826823 0.634765,1.484375 0,0.657552 -0.208333,1.16862 -0.625,1.533203 -0.416666,0.364583 -1.028645,0.546875 -1.835937,0.546875 h -3.769531 z"
         inkscape:export-filename="/Users/ryanroth/Nextcloud/Documents/RAR of Texas/Logo/RAR-HI_LOGO_SQUARE.png"
         inkscape:export-xdpi="968.63336"
         inkscape:export-ydpi="968.63336" />
      <text
         xml:space="preserve"
         style="font-style:normal;font-variant:normal;font-weight:normal;font-stretch:normal;font-size:8px;line-height:1.25;font-family:Arimo;-inkscape-font-specification:'Arimo, @wght=700';font-variant-ligatures:normal;font-variant-caps:normal;font-variant-numeric:normal;font-variant-east-asian:normal;font-variation-settings:'wght' 700;fill:#bf0d3e;fill-opacity:1"
         x="33"
         y="26.619999"
         id="text981"><tspan
           sodipodi:role="line"
           id="tspan979"
           x="33"
           y="26.619999">Home Inspections</tspan></text>
      <text
         xml:space="preserve"
         style="font-style:italic;font-variant:normal;font-weight:normal;font-stretch:normal;font-size:4.8px;line-height:1.25;font-family:Arimo;-inkscape-font-specification:'Arimo, Italic';font-variant-ligatures:normal;font-variant-caps:normal;font-variant-numeric:normal;font-variant-east-asian:normal;fill:#e5e4e2;stroke-width:1.73294;fill-opacity:1"
         x="32.547764"
         y="32.539532"
         id="text21016"
         transform="scale(1.025555,0.97508179)"><tspan
           sodipodi:role="line"
           id="tspan21014"
           x="32.547764"
           y="32.539532"
           style="font-style:italic;font-variant:normal;font-weight:normal;font-stretch:normal;font-size:4.8px;font-family:Arimo;-inkscape-font-specification:'Arimo, Italic';font-variant-ligatures:normal;font-variant-caps:normal;font-variant-numeric:normal;font-variant-east-asian:normal;fill:#e5e4e2;stroke-width:1.73294;fill-opacity:1">Rosenberg, TX</tspan></text>
      <text
         xml:space="preserve"
         style="font-style:normal;font-variant:normal;font-weight:normal;font-stretch:normal;font-size:4.8px;line-height:1.25;font-family:Arimo;-inkscape-font-specification:'Arimo, Normal';font-variant-ligatures:normal;font-variant-caps:normal;font-variant-numeric:normal;font-variant-east-asian:normal;fill:#e5e4e2;fill-opacity:1"
         x="70.051559"
         y="31.727188"
         id="text22900"><tspan
           sodipodi:role="line"
           id="tspan22898"
           x="70.051559"
           y="31.727188">(832) 933-1111</tspan></text>
    </g>
  </g>
</svg>
